<?xml version="1.0" encoding="UTF-8"?>
<svg width="300" height="120" viewBox="0 0 300 120" fill="none" xmlns="http://www.w3.org/2000/svg">
  <path d="M255.5 56.5C255.5 78.3 237.8 96 216 96H84C62.2 96 44.5 78.3 44.5 56.5C44.5 34.7 62.2 17 84 17H216C237.8 17 255.5 34.7 255.5 56.5Z" fill="#E6E6E6" fill-opacity="0.6"/>
  <path d="M84 17C62.2 17 44.5 34.7 44.5 56.5C44.5 78.3 62.2 96 84 96H216C237.8 96 255.5 78.3 255.5 56.5C255.5 34.7 237.8 17 216 17" stroke="#E6E6E6" stroke-width="2"/>
  <path d="M216 17H84C62.2 17 44.5 34.7 44.5 56.5C44.5 78.3 62.2 96 84 96H216C237.8 96 255.5 78.3 255.5 56.5C255.5 34.7 237.8 17 216 17Z" fill="white" fill-opacity="0.8"/>
</svg>
