<?xml version="1.0" encoding="UTF-8"?>
<svg width="100" height="100" viewBox="0 0 100 100" xmlns="http://www.w3.org/2000/svg">
  <g fill="#4a5fc1">
    <path d="M34.1,77.1c-0.8,0-1.6-0.3-2.2-0.9L10.3,54.6c-1.2-1.2-1.2-3.1,0-4.3l21.6-21.6c1.2-1.2,3.1-1.2,4.3,0
      c1.2,1.2,1.2,3.1,0,4.3L17.1,52.5l19.2,19.2c1.2,1.2,1.2,3.1,0,4.3C35.7,76.8,34.9,77.1,34.1,77.1z"/>
    <path d="M65.9,77.1c-0.8,0-1.6-0.3-2.2-0.9c-1.2-1.2-1.2-3.1,0-4.3l19.2-19.2L63.7,33.4c-1.2-1.2-1.2-3.1,0-4.3
      c1.2-1.2,3.1-1.2,4.3,0l21.6,21.6c1.2,1.2,1.2,3.1,0,4.3L68.1,76.2C67.5,76.8,66.7,77.1,65.9,77.1z"/>
  </g>
</svg>
